<?xml version="1.0" encoding="UTF-8" standalone="no"?>
<svg
   xmlns:dc="http://purl.org/dc/elements/1.1/"
   xmlns:cc="http://creativecommons.org/ns#"
   xmlns:rdf="http://www.w3.org/1999/02/22-rdf-syntax-ns#"
   xmlns:svg="http://www.w3.org/2000/svg"
   xmlns="http://www.w3.org/2000/svg"
   xmlns:sodipodi="http://sodipodi.sourceforge.net/DTD/sodipodi-0.dtd"
   xmlns:inkscape="http://www.inkscape.org/namespaces/inkscape"
   version="1.0"
   width="1125.000000pt"
   height="1125.000000pt"
   viewBox="0 0 1125.000000 1125.000000"
   preserveAspectRatio="xMidYMid meet"
   id="svg8"
   sodipodi:docname="logo_white.svg"
   inkscape:version="0.92.5 (2060ec1f9f, 2020-04-08)">
  <defs
     id="defs12" />
  <sodipodi:namedview
     pagecolor="#ffffff"
     bordercolor="#666666"
     borderopacity="1"
     objecttolerance="10"
     gridtolerance="10"
     guidetolerance="10"
     inkscape:pageopacity="0"
     inkscape:pageshadow="2"
     inkscape:window-width="1920"
     inkscape:window-height="1016"
     id="namedview10"
     showgrid="false"
     inkscape:zoom="0.15733333"
     inkscape:cx="-375.00002"
     inkscape:cy="724.57626"
     inkscape:window-x="0"
     inkscape:window-y="27"
     inkscape:window-maximized="1"
     inkscape:current-layer="g6" />
  <metadata
     id="metadata2">
Created by potrace 1.16, written by Peter Selinger 2001-2019
<rdf:RDF>
  <cc:Work
     rdf:about="">
    <dc:format>image/svg+xml</dc:format>
    <dc:type
       rdf:resource="http://purl.org/dc/dcmitype/StillImage" />
    <dc:title></dc:title>
  </cc:Work>
</rdf:RDF>
</metadata>
  <g
     transform="translate(0.000000,1125.000000) scale(0.100000,-0.100000)"
     fill="#000000"
     stroke="none"
     id="g6">
    <path
       d="M3308 8703 l-3 -778 -762 -3 -763 -2 0 -2283 0 -2284 167 -6 c91 -4 484 -7 872 -7 634 0 2021 -17 2029 -25 2 -2 6 -348 9 -769 l6 -766 1527 0 1527 0 7 508 c3 279 9 624 12 768 l7 261 261 6 c143 4 489 10 769 13 l507 7 0 754 0 753 -767 -2 -768 -3 -5 -760 -5 -760 -777 -3 -778 -2 0 752 c0 414 -4 759 -8 765 -6 10 -174 13 -763 15 l-754 3 0 775 0 775 762 3 763 2 2 -772 3 -773 767 -3 768 -2 2 772 3 773 778 3 777 2 0 754 0 753 -507 7 c-280 3 -626 9 -769 13 l-261 6 -7 261 c-3 144 -9 489 -12 769 l-7 507 -2303 0 -2304 0 -2 -777z"
       id="path4"
       style="fill:#ffffff" />
  </g>
</svg>
